<svg xmlns="http://www.w3.org/2000/svg" width="1280" height="720" viewBox="0 0 1280 720"><rect width="100%" height="100%" fill="#FFFFFF"/><g data-camera-x="4.182" data-camera-y="2.091" data-camera-zoom="1.014" data-camera-interpolation="linear" transform="translate(-4.182 -2.091) scale(1.014)"><path data-object="object-left" data-asset="svg-left" data-mode="full" data-progress="1" data-ordering="scene-1:1:object-left:path:0" data-active="false" opacity="1" fill="none" stroke="#D3E0E2" fill-opacity="1" stroke-opacity="1" stroke-width="18" stroke-linecap="round" stroke-linejoin="round" transform="translate(12 116) rotate(0) scale(1.011 1.008)" d="M 50 470 L 420 470"/><path data-object="object-left" data-asset="svg-left" data-mode="full" data-progress="1" data-ordering="scene-1:1:object-left:path:1" data-active="false" opacity="1" fill="#E8ECEF" stroke="none" fill-opacity="1" stroke-opacity="1" stroke-width="0" stroke-linecap="round" stroke-linejoin="round" transform="translate(12 116) rotate(0) scale(1.011 1.008)" d="M 164 452 L 404 452 L 390 470 L 178 470 Z"/><path data-object="object-left" data-asset="svg-left" data-mode="full" data-progress="1" data-ordering="scene-1:1:object-left:path:2" data-active="false" opacity="1" fill="#FFFFFF" stroke="#8B596A" fill-opacity="1" stroke-opacity="1" stroke-width="10" stroke-linecap="round" stroke-linejoin="round" transform="translate(12 116) rotate(0) scale(1.011 1.008)" d="M 170 110 L 396 110 L 418 132 L 418 432 L 396 456 L 170 456 L 148 432 L 148 132 Z"/><path data-object="object-left" data-asset="svg-left" data-mode="full" data-progress="1" data-ordering="scene-1:1:object-left:path:3" data-active="false" opacity="1" fill="#8B596A" stroke="none" fill-opacity="1" stroke-opacity="1" stroke-width="0" stroke-linecap="round" stroke-linejoin="round" transform="translate(12 116) rotate(0) scale(1.011 1.008)" d="M 208 122 C 216 116 226 116 234 122 C 228 132 214 132 208 122 Z"/><path data-object="object-left" data-asset="svg-left" data-mode="full" data-progress="1" data-ordering="scene-1:1:object-left:path:4" data-active="false" opacity="1" fill="#8B596A" stroke="none" fill-opacity="1" stroke-opacity="1" stroke-width="0" stroke-linecap="round" stroke-linejoin="round" transform="translate(12 116) rotate(0) scale(1.011 1.008)" d="M 332 122 C 340 116 350 116 358 122 C 352 132 338 132 332 122 Z"/><path data-object="object-left" data-asset="svg-left" data-mode="full" data-progress="1" data-ordering="scene-1:1:object-left:path:5" data-active="false" opacity="1" fill="none" stroke="#5E93A0" fill-opacity="1" stroke-opacity="1" stroke-width="8" stroke-linecap="round" stroke-linejoin="round" transform="translate(12 116) rotate(0) scale(1.011 1.008)" d="M 220 110 L 220 148 L 346 148 L 346 110"/><path data-object="object-left" data-asset="svg-left" data-mode="full" data-progress="1" data-ordering="scene-1:1:object-left:path:6" data-active="false" opacity="1" fill="#F7FBFB" stroke="none" fill-opacity="1" stroke-opacity="1" stroke-width="0" stroke-linecap="round" stroke-linejoin="round" transform="translate(12 116) rotate(0) scale(1.011 1.008)" d="M 188 164 L 380 164 L 380 428 L 188 428 Z"/><path data-object="object-left" data-asset="svg-left" data-mode="full" data-progress="1" data-ordering="scene-1:1:object-left:path:7" data-active="false" opacity="1" fill="#F7F0F4" stroke="none" fill-opacity="1" stroke-opacity="1" stroke-width="0" stroke-linecap="round" stroke-linejoin="round" transform="translate(12 116) rotate(0) scale(1.011 1.008)" d="M 210 182 C 228 164 256 164 274 182 C 256 200 228 200 210 182 Z"/><path data-object="object-left" data-asset="svg-left" data-mode="full" data-progress="1" data-ordering="scene-1:1:object-left:path:8" data-active="false" opacity="1" fill="#58C2B8" stroke="#58C2B8" fill-opacity="1" stroke-opacity="1" stroke-width="8" stroke-linecap="round" stroke-linejoin="round" transform="translate(12 116) rotate(0) scale(1.011 1.008)" d="M 224 182 L 242 200 L 276 162"/><path data-object="object-left" data-asset="svg-left" data-mode="full" data-progress="1" data-ordering="scene-1:1:object-left:path:9" data-active="false" opacity="1" fill="#F7F0F4" stroke="none" fill-opacity="1" stroke-opacity="1" stroke-width="0" stroke-linecap="round" stroke-linejoin="round" transform="translate(12 116) rotate(0) scale(1.011 1.008)" d="M 210 250 C 228 232 256 232 274 250 C 256 268 228 268 210 250 Z"/><path data-object="object-left" data-asset="svg-left" data-mode="full" data-progress="1" data-ordering="scene-1:1:object-left:path:10" data-active="false" opacity="1" fill="#58C2B8" stroke="#58C2B8" fill-opacity="1" stroke-opacity="1" stroke-width="8" stroke-linecap="round" stroke-linejoin="round" transform="translate(12 116) rotate(0) scale(1.011 1.008)" d="M 224 250 L 242 268 L 276 230"/><path data-object="object-left" data-asset="svg-left" data-mode="full" data-progress="1" data-ordering="scene-1:1:object-left:path:11" data-active="false" opacity="1" fill="#F7F0F4" stroke="none" fill-opacity="1" stroke-opacity="1" stroke-width="0" stroke-linecap="round" stroke-linejoin="round" transform="translate(12 116) rotate(0) scale(1.011 1.008)" d="M 210 318 C 228 300 256 300 274 318 C 256 336 228 336 210 318 Z"/><path data-object="object-left" data-asset="svg-left" data-mode="full" data-progress="1" data-ordering="scene-1:1:object-left:path:12" data-active="false" opacity="1" fill="#58C2B8" stroke="#58C2B8" fill-opacity="1" stroke-opacity="1" stroke-width="8" stroke-linecap="round" stroke-linejoin="round" transform="translate(12 116) rotate(0) scale(1.011 1.008)" d="M 224 318 L 242 336 L 276 298"/><path data-object="object-left" data-asset="svg-left" data-mode="full" data-progress="1" data-ordering="scene-1:1:object-left:path:13" data-active="false" opacity="1" fill="#F7F0F4" stroke="none" fill-opacity="1" stroke-opacity="1" stroke-width="0" stroke-linecap="round" stroke-linejoin="round" transform="translate(12 116) rotate(0) scale(1.011 1.008)" d="M 210 386 C 228 368 256 368 274 386 C 256 404 228 404 210 386 Z"/><path data-object="object-left" data-asset="svg-left" data-mode="full" data-progress="1" data-ordering="scene-1:1:object-left:path:14" data-active="false" opacity="1" fill="#58C2B8" stroke="#58C2B8" fill-opacity="1" stroke-opacity="1" stroke-width="8" stroke-linecap="round" stroke-linejoin="round" transform="translate(12 116) rotate(0) scale(1.011 1.008)" d="M 224 386 L 242 404 L 276 366"/><path data-object="object-left" data-asset="svg-left" data-mode="full" data-progress="1" data-ordering="scene-1:1:object-left:path:15" data-active="false" opacity="1" fill="none" stroke="#58C2B8" fill-opacity="1" stroke-opacity="1" stroke-width="6" stroke-linecap="round" stroke-linejoin="round" transform="translate(12 116) rotate(0) scale(1.011 1.008)" d="M 304 186 L 366 186"/><path data-object="object-left" data-asset="svg-left" data-mode="full" data-progress="1" data-ordering="scene-1:1:object-left:path:16" data-active="false" opacity="1" fill="none" stroke="#58C2B8" fill-opacity="1" stroke-opacity="1" stroke-width="6" stroke-linecap="round" stroke-linejoin="round" transform="translate(12 116) rotate(0) scale(1.011 1.008)" d="M 304 206 L 358 206"/><path data-object="object-left" data-asset="svg-left" data-mode="full" data-progress="1" data-ordering="scene-1:1:object-left:path:17" data-active="false" opacity="1" fill="none" stroke="#58C2B8" fill-opacity="1" stroke-opacity="1" stroke-width="6" stroke-linecap="round" stroke-linejoin="round" transform="translate(12 116) rotate(0) scale(1.011 1.008)" d="M 304 254 L 370 254"/><path data-object="object-left" data-asset="svg-left" data-mode="full" data-progress="1" data-ordering="scene-1:1:object-left:path:18" data-active="false" opacity="1" fill="none" stroke="#58C2B8" fill-opacity="1" stroke-opacity="1" stroke-width="6" stroke-linecap="round" stroke-linejoin="round" transform="translate(12 116) rotate(0) scale(1.011 1.008)" d="M 304 274 L 360 274"/><path data-object="object-left" data-asset="svg-left" data-mode="full" data-progress="1" data-ordering="scene-1:1:object-left:path:19" data-active="false" opacity="1" fill="none" stroke="#58C2B8" fill-opacity="1" stroke-opacity="1" stroke-width="6" stroke-linecap="round" stroke-linejoin="round" transform="translate(12 116) rotate(0) scale(1.011 1.008)" d="M 304 322 L 372 322"/><path data-object="object-left" data-asset="svg-left" data-mode="full" data-progress="1" data-ordering="scene-1:1:object-left:path:20" data-active="false" opacity="1" fill="none" stroke="#58C2B8" fill-opacity="1" stroke-opacity="1" stroke-width="6" stroke-linecap="round" stroke-linejoin="round" transform="translate(12 116) rotate(0) scale(1.011 1.008)" d="M 304 342 L 360 342"/><path data-object="object-left" data-asset="svg-left" data-mode="full" data-progress="1" data-ordering="scene-1:1:object-left:path:21" data-active="false" opacity="1" fill="none" stroke="#58C2B8" fill-opacity="1" stroke-opacity="1" stroke-width="6" stroke-linecap="round" stroke-linejoin="round" transform="translate(12 116) rotate(0) scale(1.011 1.008)" d="M 304 390 L 372 390"/><path data-object="object-left" data-asset="svg-left" data-mode="full" data-progress="1" data-ordering="scene-1:1:object-left:path:22" data-active="false" opacity="1" fill="none" stroke="#58C2B8" fill-opacity="1" stroke-opacity="1" stroke-width="6" stroke-linecap="round" stroke-linejoin="round" transform="translate(12 116) rotate(0) scale(1.011 1.008)" d="M 304 410 L 356 410"/><path data-object="object-left" data-asset="svg-left" data-mode="full" data-progress="1" data-ordering="scene-1:1:object-left:path:23" data-active="false" opacity="1" fill="#F0F3F6" stroke="#C8CED1" fill-opacity="1" stroke-opacity="1" stroke-width="6" stroke-linecap="round" stroke-linejoin="round" transform="translate(12 116) rotate(0) scale(1.011 1.008)" d="M 324 140 L 392 140 L 392 222 L 324 222 Z"/><path data-object="object-left" data-asset="svg-left" data-mode="full" data-progress="1" data-ordering="scene-1:1:object-left:path:24" data-active="false" opacity="1" fill="#C04E79" stroke="none" fill-opacity="1" stroke-opacity="1" stroke-width="0" stroke-linecap="round" stroke-linejoin="round" transform="translate(12 116) rotate(0) scale(1.011 1.008)" d="M 358 154 C 377 154 390 167 390 186 L 358 186 Z"/><path data-object="object-left" data-asset="svg-left" data-mode="full" data-progress="1" data-ordering="scene-1:1:object-left:path:25" data-active="false" opacity="1" fill="#3C7E96" stroke="none" fill-opacity="1" stroke-opacity="1" stroke-width="0" stroke-linecap="round" stroke-linejoin="round" transform="translate(12 116) rotate(0) scale(1.011 1.008)" d="M 358 186 L 388 196 C 384 214 370 224 352 224 Z"/><path data-object="object-left" data-asset="svg-left" data-mode="full" data-progress="1" data-ordering="scene-1:1:object-left:path:26" data-active="false" opacity="1" fill="#E9C7A8" stroke="none" fill-opacity="1" stroke-opacity="1" stroke-width="0" stroke-linecap="round" stroke-linejoin="round" transform="translate(12 116) rotate(0) scale(1.011 1.008)" d="M 352 186 L 352 154 C 334 154 320 170 320 188 Z"/><path data-object="object-left" data-asset="svg-left" data-mode="full" data-progress="1" data-ordering="scene-1:1:object-left:path:27" data-active="false" opacity="1" fill="none" stroke="#8C5B6D" fill-opacity="1" stroke-opacity="1" stroke-width="4" stroke-linecap="round" stroke-linejoin="round" transform="translate(12 116) rotate(0) scale(1.011 1.008)" d="M 140 334 C 164 318 182 300 192 278"/><path data-object="object-left" data-asset="svg-left" data-mode="full" data-progress="1" data-ordering="scene-1:1:object-left:path:28" data-active="false" opacity="1" fill="#EFC4D8" stroke="#A6547F" fill-opacity="1" stroke-opacity="1" stroke-width="5" stroke-linecap="round" stroke-linejoin="round" transform="translate(12 116) rotate(0) scale(1.011 1.008)" d="M 88 444 L 122 238 L 162 264 L 128 470 Z"/><path data-object="object-left" data-asset="svg-left" data-mode="full" data-progress="1" data-ordering="scene-1:1:object-left:path:29" data-active="false" opacity="1" fill="#A64A7A" stroke="none" fill-opacity="1" stroke-opacity="1" stroke-width="0" stroke-linecap="round" stroke-linejoin="round" transform="translate(12 116) rotate(0) scale(1.011 1.008)" d="M 122 238 L 162 264 L 148 290 L 108 266 Z"/><path data-object="object-left" data-asset="svg-left" data-mode="full" data-progress="1" data-ordering="scene-1:1:object-left:path:30" data-active="false" opacity="1" fill="#F5D07F" stroke="none" fill-opacity="1" stroke-opacity="1" stroke-width="0" stroke-linecap="round" stroke-linejoin="round" transform="translate(12 116) rotate(0) scale(1.011 1.008)" d="M 88 444 L 122 238 L 96 230 L 60 434 Z"/><path data-object="object-left" data-asset="svg-left" data-mode="full" data-progress="1" data-ordering="scene-1:1:object-left:path:31" data-active="false" opacity="1" fill="#E7B15B" stroke="none" fill-opacity="1" stroke-opacity="1" stroke-width="0" stroke-linecap="round" stroke-linejoin="round" transform="translate(12 116) rotate(0) scale(1.011 1.008)" d="M 60 434 L 96 230 L 78 222 L 44 426 Z"/><path data-object="object-left" data-asset="svg-left" data-mode="full" data-progress="1" data-ordering="scene-1:1:object-left:path:32" data-active="false" opacity="1" fill="#D69CB8" stroke="none" fill-opacity="1" stroke-opacity="1" stroke-width="0" stroke-linecap="round" stroke-linejoin="round" transform="translate(12 116) rotate(0) scale(1.011 1.008)" d="M 58 220 L 104 232 L 86 180 Z"/><path data-object="object-left" data-asset="svg-left" data-mode="full" data-progress="1" data-ordering="scene-1:1:object-left:path:33" data-active="false" opacity="1" fill="#D99B6C" stroke="none" fill-opacity="1" stroke-opacity="1" stroke-width="0" stroke-linecap="round" stroke-linejoin="round" transform="translate(12 116) rotate(0) scale(1.011 1.008)" d="M 66 176 C 77 166 90 166 101 176 C 100 194 83 204 66 196 Z"/><path data-object="object-left" data-asset="svg-left" data-mode="full" data-progress="1" data-ordering="scene-1:1:object-left:path:34" data-active="false" opacity="1" fill="#F7DDE8" stroke="none" fill-opacity="1" stroke-opacity="1" stroke-width="0" stroke-linecap="round" stroke-linejoin="round" transform="translate(12 116) rotate(0) scale(1.011 1.008)" d="M 52 198 C 74 198 88 214 90 248 L 98 386 L 72 470 L 36 470 L 38 382 L 46 254 C 47 224 52 208 52 198 Z"/><path data-object="object-left" data-asset="svg-left" data-mode="full" data-progress="1" data-ordering="scene-1:1:object-left:path:35" data-active="false" opacity="1" fill="#9FA7D9" stroke="none" fill-opacity="1" stroke-opacity="1" stroke-width="0" stroke-linecap="round" stroke-linejoin="round" transform="translate(12 116) rotate(0) scale(1.011 1.008)" d="M 44 382 L 28 470 L 58 470 L 68 384 Z"/><path data-object="object-left" data-asset="svg-left" data-mode="full" data-progress="1" data-ordering="scene-1:1:object-left:path:36" data-active="false" opacity="1" fill="#6E7AB7" stroke="none" fill-opacity="1" stroke-opacity="1" stroke-width="0" stroke-linecap="round" stroke-linejoin="round" transform="translate(12 116) rotate(0) scale(1.011 1.008)" d="M 68 384 L 80 470 L 104 470 L 90 380 Z"/><path data-object="object-left" data-asset="svg-left" data-mode="full" data-progress="1" data-ordering="scene-1:1:object-left:path:37" data-active="false" opacity="1" fill="#7B4B5C" stroke="none" fill-opacity="1" stroke-opacity="1" stroke-width="0" stroke-linecap="round" stroke-linejoin="round" transform="translate(12 116) rotate(0) scale(1.011 1.008)" d="M 286 58 C 300 42 326 42 340 58 C 338 78 322 92 304 90 C 292 88 286 74 286 58 Z"/><path data-object="object-left" data-asset="svg-left" data-mode="full" data-progress="1" data-ordering="scene-1:1:object-left:path:38" data-active="false" opacity="1" fill="#9FE3DB" stroke="none" fill-opacity="1" stroke-opacity="1" stroke-width="0" stroke-linecap="round" stroke-linejoin="round" transform="translate(12 116) rotate(0) scale(1.011 1.008)" d="M 286 88 L 270 196 L 310 252 L 344 248 L 330 114 Z"/><path data-object="object-left" data-asset="svg-left" data-mode="full" data-progress="1" data-ordering="scene-1:1:object-left:path:39" data-active="false" opacity="1" fill="#1B7C86" stroke="none" fill-opacity="1" stroke-opacity="1" stroke-width="0" stroke-linecap="round" stroke-linejoin="round" transform="translate(12 116) rotate(0) scale(1.011 1.008)" d="M 314 98 L 324 170 L 340 248 L 366 248 L 348 104 Z"/><path data-object="object-left" data-asset="svg-left" data-mode="full" data-progress="1" data-ordering="scene-1:1:object-left:path:40" data-active="false" opacity="1" fill="#1A6A74" stroke="none" fill-opacity="1" stroke-opacity="1" stroke-width="0" stroke-linecap="round" stroke-linejoin="round" transform="translate(12 116) rotate(0) scale(1.011 1.008)" d="M 316 98 L 326 152 L 300 152 L 298 102 Z"/><path data-object="object-left" data-asset="svg-left" data-mode="full" data-progress="1" data-ordering="scene-1:1:object-left:path:41" data-active="false" opacity="1" fill="#4E144E" stroke="none" fill-opacity="1" stroke-opacity="1" stroke-width="0" stroke-linecap="round" stroke-linejoin="round" transform="translate(12 116) rotate(0) scale(1.011 1.008)" d="M 252 138 L 304 138 L 304 182 L 252 182 Z"/><path data-object="object-left" data-asset="svg-left" data-mode="full" data-progress="1" data-ordering="scene-1:1:object-left:path:42" data-active="false" opacity="1" fill="#D89475" stroke="none" fill-opacity="1" stroke-opacity="1" stroke-width="0" stroke-linecap="round" stroke-linejoin="round" transform="translate(12 116) rotate(0) scale(1.011 1.008)" d="M 278 138 L 286 156 L 302 156 L 296 134 Z"/><path data-object="object-left" data-asset="svg-left" data-mode="full" data-progress="1" data-ordering="scene-1:1:object-left:path:43" data-active="false" opacity="1" fill="#D99B6C" stroke="none" fill-opacity="1" stroke-opacity="1" stroke-width="0" stroke-linecap="round" stroke-linejoin="round" transform="translate(12 116) rotate(0) scale(1.011 1.008)" d="M 344 260 C 356 246 380 246 392 260 C 392 282 376 294 360 292 C 348 290 342 278 344 260 Z"/><path data-object="object-left" data-asset="svg-left" data-mode="full" data-progress="1" data-ordering="scene-1:1:object-left:path:44" data-active="false" opacity="1" fill="none" stroke="#1A6A74" fill-opacity="1" stroke-opacity="1" stroke-width="4" stroke-linecap="round" stroke-linejoin="round" transform="translate(12 116) rotate(0) scale(1.011 1.008)" d="M 334 280 C 322 304 314 328 312 352"/><path data-object="object-left" data-asset="svg-left" data-mode="full" data-progress="1" data-ordering="scene-1:1:object-left:path:45" data-active="false" opacity="1" fill="#3B0D58" stroke="none" fill-opacity="1" stroke-opacity="1" stroke-width="0" stroke-linecap="round" stroke-linejoin="round" transform="translate(12 116) rotate(0) scale(1.011 1.008)" d="M 334 292 L 324 470 L 366 470 L 370 344 L 384 470 L 420 470 L 400 292 Z"/><path data-object="object-left" data-asset="svg-left" data-mode="full" data-progress="1" data-ordering="scene-1:1:object-left:path:46" data-active="false" opacity="1" fill="#15818A" stroke="none" fill-opacity="1" stroke-opacity="1" stroke-width="0" stroke-linecap="round" stroke-linejoin="round" transform="translate(12 116) rotate(0) scale(1.011 1.008)" d="M 352 292 L 362 348 L 354 470 L 370 470 L 378 346 L 370 292 Z"/><path data-object="object-left" data-asset="svg-left" data-mode="full" data-progress="1" data-ordering="scene-1:1:object-left:path:47" data-active="false" opacity="1" fill="#F5F3FA" stroke="#D3D6E4" fill-opacity="1" stroke-opacity="1" stroke-width="5" stroke-linecap="round" stroke-linejoin="round" transform="translate(12 116) rotate(0) scale(1.011 1.008)" d="M 324 332 L 392 332 L 392 374 L 324 374 Z"/><path data-object="object-left" data-asset="svg-left" data-mode="full" data-progress="1" data-ordering="scene-1:1:object-left:path:48" data-active="false" opacity="1" fill="#DDE4E8" stroke="none" fill-opacity="1" stroke-opacity="1" stroke-width="0" stroke-linecap="round" stroke-linejoin="round" transform="translate(12 116) rotate(0) scale(1.011 1.008)" d="M 428 470 C 442 454 462 448 488 452 C 504 454 516 460 524 470 Z"/><path data-object="object-left" data-asset="svg-left" data-mode="full" data-progress="1" data-ordering="scene-1:1:object-left:path:49" data-active="false" opacity="1" fill="#7C3628" stroke="none" fill-opacity="1" stroke-opacity="1" stroke-width="0" stroke-linecap="round" stroke-linejoin="round" transform="translate(12 116) rotate(0) scale(1.011 1.008)" d="M 448 418 L 478 418 L 486 470 L 440 470 Z"/><path data-object="object-left" data-asset="svg-left" data-mode="full" data-progress="1" data-ordering="scene-1:1:object-left:path:50" data-active="false" opacity="1" fill="#32A49D" stroke="#236C69" fill-opacity="1" stroke-opacity="1" stroke-width="4" stroke-linecap="round" stroke-linejoin="round" transform="translate(12 116) rotate(0) scale(1.011 1.008)" d="M 462 328 C 490 348 492 390 468 418 C 442 398 438 354 462 328 Z"/><path data-object="object-left" data-asset="svg-left" data-mode="full" data-progress="1" data-ordering="scene-1:1:object-left:path:51" data-active="false" opacity="1" fill="#1C887D" stroke="#236C69" fill-opacity="1" stroke-opacity="1" stroke-width="4" stroke-linecap="round" stroke-linejoin="round" transform="translate(12 116) rotate(0) scale(1.011 1.008)" d="M 450 388 C 432 406 432 434 452 452 C 466 436 468 410 450 388 Z"/><path data-object="object-left" data-asset="svg-left" data-mode="full" data-progress="1" data-ordering="scene-1:1:object-left:path:52" data-active="false" opacity="1" fill="#56C4B6" stroke="none" fill-opacity="1" stroke-opacity="1" stroke-width="0" stroke-linecap="round" stroke-linejoin="round" transform="translate(12 116) rotate(0) scale(1.011 1.008)" d="M 474 350 C 494 338 512 340 526 356 C 508 366 490 364 474 350 Z"/><path data-object="object-arrow" data-asset="svg-arrow" data-mode="full" data-progress="1" data-ordering="scene-1:2:object-arrow:path:0" data-active="false" opacity="1" fill="#F0EEF2" stroke="#202020" fill-opacity="1" stroke-opacity="1" stroke-width="4" stroke-linecap="round" stroke-linejoin="round" transform="translate(526 60) rotate(0) scale(0.744 0.743)" d="M 18 104 C 72 30 176 8 270 34 L 280 6 L 410 104 L 280 202 L 270 174 C 176 200 74 178 18 104 Z"/><path data-object="object-arrow" data-asset="svg-arrow" data-mode="full" data-progress="1" data-ordering="scene-1:2:object-arrow:path:1" data-active="false" opacity="1" fill="#FFFFFF" stroke="none" fill-opacity="0.72" stroke-opacity="0.72" stroke-width="0" stroke-linecap="round" stroke-linejoin="round" transform="translate(526 60) rotate(0) scale(0.744 0.743)" d="M 42 104 C 90 48 180 28 256 48 L 268 24 L 374 104 L 268 184 L 256 160 C 180 178 92 160 42 104 Z"/><path data-object="object-arrow" data-asset="svg-arrow" data-mode="full" data-progress="1" data-ordering="scene-1:2:object-arrow:path:2" data-active="false" opacity="1" fill="#D6DCE8" stroke="#2A2A2A" fill-opacity="1" stroke-opacity="1" stroke-width="3.2" stroke-linecap="round" stroke-linejoin="round" transform="translate(526 60) rotate(0) scale(0.744 0.743)" d="M 274 30 L 386 104 L 274 178 L 268 152 C 196 170 116 154 66 104 C 114 58 196 40 268 58 Z"/><path data-object="object-arrow" data-asset="svg-arrow" data-mode="full" data-progress="1" data-ordering="scene-1:2:object-arrow:path:3" data-active="false" opacity="1" fill="none" stroke="#2A2A2A" fill-opacity="1" stroke-opacity="1" stroke-width="5" stroke-linecap="round" stroke-linejoin="round" transform="translate(526 60) rotate(0) scale(0.744 0.743)" d="M 42 104 C 92 46 176 30 254 46"/><path data-object="object-arrow" data-asset="svg-arrow" data-mode="full" data-progress="1" data-ordering="scene-1:2:object-arrow:path:4" data-active="false" opacity="1" fill="none" stroke="#99A6BB" fill-opacity="1" stroke-opacity="1" stroke-width="4" stroke-linecap="round" stroke-linejoin="round" transform="translate(526 60) rotate(0) scale(0.744 0.743)" d="M 70 112 C 124 146 196 150 256 134"/><path data-object="object-arrow" data-asset="svg-arrow" data-mode="full" data-progress="1" data-ordering="scene-1:2:object-arrow:path:5" data-active="false" opacity="1" fill="#A8B4C8" stroke="none" fill-opacity="0.58" stroke-opacity="0.58" stroke-width="0" stroke-linecap="round" stroke-linejoin="round" transform="translate(526 60) rotate(0) scale(0.744 0.743)" d="M 286 74 L 342 104 L 286 136 Z"/><path data-object="object-title" data-asset="svg-title" data-mode="full" data-progress="1" data-ordering="scene-1:3:object-title:path:0" data-active="false" opacity="0.663" fill="#EF533A" stroke="none" fill-opacity="1" stroke-opacity="1" stroke-width="0" stroke-linecap="round" stroke-linejoin="round" transform="translate(778.375 65) rotate(0) scale(0.568 0.591)" d="M10.5244140625,30.639762878418L84.484375,30.639762878418 84.484375,50.083122253418 59.669921875,50.083122253418 59.669921875,109.379997253418 35.3388671875,109.379997253418 35.3388671875,50.083122253418 10.5244140625,50.083122253418 10.5244140625,30.639762878418z"/><path data-object="object-title" data-asset="svg-title" data-mode="full" data-progress="1" data-ordering="scene-1:3:object-title:path:1" data-active="false" opacity="0.663" fill="#EF533A" stroke="none" fill-opacity="1" stroke-opacity="1" stroke-width="0" stroke-linecap="round" stroke-linejoin="round" transform="translate(778.375 65) rotate(0) scale(0.568 0.591)" d="M95.6040649414063,30.639762878418L119.935119628906,30.639762878418 119.935119628906,58.193473815918 146.522033691406,58.193473815918 146.522033691406,30.639762878418 170.960510253906,30.639762878418 170.960510253906,109.379997253418 146.522033691406,109.379997253418 146.522033691406,77.529411315918 119.935119628906,77.529411315918 119.935119628906,109.379997253418 95.6040649414063,109.379997253418 95.6040649414063,30.639762878418z"/></g></svg>